<?xml version="1.0" encoding="us-ascii" standalone="no"?><svg xmlns="http://www.w3.org/2000/svg" xmlns:xlink="http://www.w3.org/1999/xlink" contentStyleType="text/css" height="862px" preserveAspectRatio="none" style="width:1337px;height:862px;background:#FFFFFF;" version="1.1" viewBox="0 0 1337 862" width="1337px" zoomAndPan="magnify"><defs/><g><line style="stroke:#181818;stroke-width:0.5;stroke-dasharray:5.0,5.0;" x1="27" x2="27" y1="36.2969" y2="826.75"/><line style="stroke:#181818;stroke-width:0.5;stroke-dasharray:5.0,5.0;" x1="269.5" x2="269.5" y1="36.2969" y2="826.75"/><line style="stroke:#181818;stroke-width:0.5;stroke-dasharray:5.0,5.0;" x1="484.5" x2="484.5" y1="36.2969" y2="826.75"/><line style="stroke:#181818;stroke-width:0.5;stroke-dasharray:5.0,5.0;" x1="854" x2="854" y1="36.2969" y2="826.75"/><line style="stroke:#181818;stroke-width:0.5;stroke-dasharray:5.0,5.0;" x1="1113" x2="1113" y1="36.2969" y2="826.75"/><line style="stroke:#181818;stroke-width:0.5;stroke-dasharray:5.0,5.0;" x1="1187" x2="1187" y1="36.2969" y2="826.75"/><line style="stroke:#181818;stroke-width:0.5;stroke-dasharray:5.0,5.0;" x1="1275" x2="1275" y1="36.2969" y2="826.75"/><rect fill="#E2E2F0" height="30.2969" rx="2.5" ry="2.5" style="stroke:#181818;stroke-width:0.5;" width="45" x="5" y="5"/><text fill="#000000" font-family="sans-serif" font-size="14" lengthAdjust="spacing" textLength="31" x="12" y="24.9951">User</text><rect fill="#E2E2F0" height="30.2969" rx="2.5" ry="2.5" style="stroke:#181818;stroke-width:0.5;" width="45" x="5" y="825.75"/><text fill="#000000" font-family="sans-serif" font-size="14" lengthAdjust="spacing" textLength="31" x="12" y="845.7451">User</text><rect fill="#E2E2F0" height="30.2969" rx="2.5" ry="2.5" style="stroke:#181818;stroke-width:0.5;" width="72" x="233.5" y="5"/><text fill="#000000" font-family="sans-serif" font-size="14" lengthAdjust="spacing" textLength="58" x="240.5" y="24.9951">Browser</text><rect fill="#E2E2F0" height="30.2969" rx="2.5" ry="2.5" style="stroke:#181818;stroke-width:0.5;" width="72" x="233.5" y="825.75"/><text fill="#000000" font-family="sans-serif" font-size="14" lengthAdjust="spacing" textLength="58" x="240.5" y="845.7451">Browser</text><rect fill="#E2E2F0" height="30.2969" rx="2.5" ry="2.5" style="stroke:#181818;stroke-width:0.5;" width="48" x="460.5" y="5"/><text fill="#000000" font-family="sans-serif" font-size="14" lengthAdjust="spacing" textLength="34" x="467.5" y="24.9951">View</text><rect fill="#E2E2F0" height="30.2969" rx="2.5" ry="2.5" style="stroke:#181818;stroke-width:0.5;" width="48" x="460.5" y="825.75"/><text fill="#000000" font-family="sans-serif" font-size="14" lengthAdjust="spacing" textLength="34" x="467.5" y="845.7451">View</text><rect fill="#E2E2F0" height="30.2969" rx="2.5" ry="2.5" style="stroke:#181818;stroke-width:0.5;" width="87" x="811" y="5"/><text fill="#000000" font-family="sans-serif" font-size="14" lengthAdjust="spacing" textLength="73" x="818" y="24.9951">Controller</text><rect fill="#E2E2F0" height="30.2969" rx="2.5" ry="2.5" style="stroke:#181818;stroke-width:0.5;" width="87" x="811" y="825.75"/><text fill="#000000" font-family="sans-serif" font-size="14" lengthAdjust="spacing" textLength="73" x="818" y="845.7451">Controller</text><rect fill="#E2E2F0" height="30.2969" rx="2.5" ry="2.5" style="stroke:#181818;stroke-width:0.5;" width="83" x="1072" y="5"/><text fill="#000000" font-family="sans-serif" font-size="14" lengthAdjust="spacing" textLength="69" x="1079" y="24.9951">SQLiteDb</text><rect fill="#E2E2F0" height="30.2969" rx="2.5" ry="2.5" style="stroke:#181818;stroke-width:0.5;" width="83" x="1072" y="825.75"/><text fill="#000000" font-family="sans-serif" font-size="14" lengthAdjust="spacing" textLength="69" x="1079" y="845.7451">SQLiteDb</text><rect fill="#E2E2F0" height="30.2969" rx="2.5" ry="2.5" style="stroke:#181818;stroke-width:0.5;" width="45" x="1165" y="5"/><text fill="#000000" font-family="sans-serif" font-size="14" lengthAdjust="spacing" textLength="31" x="1172" y="24.9951">Utils</text><rect fill="#E2E2F0" height="30.2969" rx="2.5" ry="2.5" style="stroke:#181818;stroke-width:0.5;" width="45" x="1165" y="825.75"/><text fill="#000000" font-family="sans-serif" font-size="14" lengthAdjust="spacing" textLength="31" x="1172" y="845.7451">Utils</text><rect fill="#E2E2F0" height="30.2969" rx="2.5" ry="2.5" style="stroke:#181818;stroke-width:0.5;" width="111" x="1220" y="5"/><text fill="#000000" font-family="sans-serif" font-size="14" lengthAdjust="spacing" textLength="97" x="1227" y="24.9951">email_service</text><rect fill="#E2E2F0" height="30.2969" rx="2.5" ry="2.5" style="stroke:#181818;stroke-width:0.5;" width="111" x="1220" y="825.75"/><text fill="#000000" font-family="sans-serif" font-size="14" lengthAdjust="spacing" textLength="97" x="1227" y="845.7451">email_service</text><polygon fill="#181818" points="257.5,63.4297,267.5,67.4297,257.5,71.4297,261.5,67.4297" style="stroke:#181818;stroke-width:1.0;"/><line style="stroke:#181818;stroke-width:1.0;" x1="27.5" x2="263.5" y1="67.4297" y2="67.4297"/><text fill="#000000" font-family="sans-serif" font-size="13" lengthAdjust="spacing" textLength="152" x="34.5" y="62.3638">need to reset password</text><polygon fill="#181818" points="472.5,92.5625,482.5,96.5625,472.5,100.5625,476.5,96.5625" style="stroke:#181818;stroke-width:1.0;"/><line style="stroke:#181818;stroke-width:1.0;" x1="269.5" x2="478.5" y1="96.5625" y2="96.5625"/><text fill="#000000" font-family="sans-serif" font-size="13" lengthAdjust="spacing" textLength="145" x="276.5" y="91.4966">render pwd reset form</text><polygon fill="#181818" points="280.5,121.6953,270.5,125.6953,280.5,129.6953,276.5,125.6953" style="stroke:#181818;stroke-width:1.0;"/><line style="stroke:#181818;stroke-width:1.0;stroke-dasharray:2.0,2.0;" x1="274.5" x2="483.5" y1="125.6953" y2="125.6953"/><text fill="#000000" font-family="sans-serif" font-size="13" lengthAdjust="spacing" textLength="99" x="286.5" y="120.6294">pwd reset form</text><polygon fill="#181818" points="38.5,150.8281,28.5,154.8281,38.5,158.8281,34.5,154.8281" style="stroke:#181818;stroke-width:1.0;"/><line style="stroke:#181818;stroke-width:1.0;stroke-dasharray:2.0,2.0;" x1="32.5" x2="268.5" y1="154.8281" y2="154.8281"/><text fill="#000000" font-family="sans-serif" font-size="13" lengthAdjust="spacing" textLength="99" x="44.5" y="149.7622">pwd reset form</text><polygon fill="#181818" points="257.5,179.9609,267.5,183.9609,257.5,187.9609,261.5,183.9609" style="stroke:#181818;stroke-width:1.0;"/><line style="stroke:#181818;stroke-width:1.0;" x1="27.5" x2="263.5" y1="183.9609" y2="183.9609"/><text fill="#000000" font-family="sans-serif" font-size="13" lengthAdjust="spacing" textLength="132" x="34.5" y="178.895">pwd form with email</text><polygon fill="#181818" points="842.5,209.0938,852.5,213.0938,842.5,217.0938,846.5,213.0938" style="stroke:#181818;stroke-width:1.0;"/><line style="stroke:#181818;stroke-width:1.0;" x1="269.5" x2="848.5" y1="213.0938" y2="213.0938"/><text fill="#000000" font-family="sans-serif" font-size="13" lengthAdjust="spacing" textLength="76" x="276.5" y="208.0278">valid email?</text><polygon fill="#181818" points="1101.5,238.2266,1111.5,242.2266,1101.5,246.2266,1105.5,242.2266" style="stroke:#181818;stroke-width:1.0;"/><line style="stroke:#181818;stroke-width:1.0;" x1="854.5" x2="1107.5" y1="242.2266" y2="242.2266"/><text fill="#000000" font-family="sans-serif" font-size="13" lengthAdjust="spacing" textLength="118" x="861.5" y="237.1606">query email exists</text><polygon fill="#181818" points="865.5,267.3594,855.5,271.3594,865.5,275.3594,861.5,271.3594" style="stroke:#181818;stroke-width:1.0;"/><line style="stroke:#181818;stroke-width:1.0;stroke-dasharray:2.0,2.0;" x1="859.5" x2="1112.5" y1="271.3594" y2="271.3594"/><text fill="#000000" font-family="sans-serif" font-size="13" lengthAdjust="spacing" textLength="162" x="871.5" y="266.2935">user obj found with email</text><polygon fill="#181818" points="1175.5,296.4922,1185.5,300.4922,1175.5,304.4922,1179.5,300.4922" style="stroke:#181818;stroke-width:1.0;"/><line style="stroke:#181818;stroke-width:1.0;" x1="854.5" x2="1181.5" y1="300.4922" y2="300.4922"/><text fill="#000000" font-family="sans-serif" font-size="13" lengthAdjust="spacing" textLength="184" x="861.5" y="295.4263">generate token with user obj</text><polygon fill="#181818" points="865.5,325.625,855.5,329.625,865.5,333.625,861.5,329.625" style="stroke:#181818;stroke-width:1.0;"/><line style="stroke:#181818;stroke-width:1.0;stroke-dasharray:2.0,2.0;" x1="859.5" x2="1186.5" y1="329.625" y2="329.625"/><text fill="#000000" font-family="sans-serif" font-size="13" lengthAdjust="spacing" textLength="104" x="871.5" y="324.5591">pwd reset token</text><polygon fill="#181818" points="1263.5,354.7578,1273.5,358.7578,1263.5,362.7578,1267.5,358.7578" style="stroke:#181818;stroke-width:1.0;"/><line style="stroke:#181818;stroke-width:1.0;" x1="854.5" x2="1269.5" y1="358.7578" y2="358.7578"/><text fill="#000000" font-family="sans-serif" font-size="13" lengthAdjust="spacing" textLength="293" x="861.5" y="353.6919">generate and send email reset link with token</text><polygon fill="#181818" points="38.5,383.8906,28.5,387.8906,38.5,391.8906,34.5,387.8906" style="stroke:#181818;stroke-width:1.0;"/><line style="stroke:#181818;stroke-width:1.0;" x1="32.5" x2="1274.5" y1="387.8906" y2="387.8906"/><text fill="#000000" font-family="sans-serif" font-size="13" lengthAdjust="spacing" textLength="97" x="44.5" y="382.8247">email reset link</text><polygon fill="#181818" points="257.5,413.0234,267.5,417.0234,257.5,421.0234,261.5,417.0234" style="stroke:#181818;stroke-width:1.0;"/><line style="stroke:#181818;stroke-width:1.0;" x1="27.5" x2="263.5" y1="417.0234" y2="417.0234"/><text fill="#000000" font-family="sans-serif" font-size="13" lengthAdjust="spacing" textLength="218" x="34.5" y="411.9575">clink-link requests reset-pwd form</text><polygon fill="#181818" points="472.5,442.1563,482.5,446.1563,472.5,450.1563,476.5,446.1563" style="stroke:#181818;stroke-width:1.0;"/><line style="stroke:#181818;stroke-width:1.0;" x1="269.5" x2="478.5" y1="446.1563" y2="446.1563"/><text fill="#000000" font-family="sans-serif" font-size="13" lengthAdjust="spacing" textLength="145" x="276.5" y="441.0903">render pwd reset form</text><line style="stroke:#181818;stroke-width:1.0;" x1="484.5" x2="526.5" y1="475.2891" y2="475.2891"/><line style="stroke:#181818;stroke-width:1.0;" x1="526.5" x2="526.5" y1="475.2891" y2="488.2891"/><line style="stroke:#181818;stroke-width:1.0;" x1="485.5" x2="526.5" y1="488.2891" y2="488.2891"/><polygon fill="#181818" points="495.5,484.2891,485.5,488.2891,495.5,492.2891,491.5,488.2891" style="stroke:#181818;stroke-width:1.0;"/><text fill="#000000" font-family="sans-serif" font-size="13" lengthAdjust="spacing" textLength="356" x="491.5" y="470.2231">use embedded token and email to render html for form</text><polygon fill="#181818" points="280.5,513.4219,270.5,517.4219,280.5,521.4219,276.5,517.4219" style="stroke:#181818;stroke-width:1.0;"/><line style="stroke:#181818;stroke-width:1.0;stroke-dasharray:2.0,2.0;" x1="274.5" x2="483.5" y1="517.4219" y2="517.4219"/><text fill="#000000" font-family="sans-serif" font-size="13" lengthAdjust="spacing" textLength="99" x="286.5" y="512.356">pwd reset form</text><polygon fill="#181818" points="38.5,542.5547,28.5,546.5547,38.5,550.5547,34.5,546.5547" style="stroke:#181818;stroke-width:1.0;"/><line style="stroke:#181818;stroke-width:1.0;stroke-dasharray:2.0,2.0;" x1="32.5" x2="268.5" y1="546.5547" y2="546.5547"/><text fill="#000000" font-family="sans-serif" font-size="13" lengthAdjust="spacing" textLength="99" x="44.5" y="541.4888">pwd reset form</text><polygon fill="#181818" points="257.5,571.6875,267.5,575.6875,257.5,579.6875,261.5,575.6875" style="stroke:#181818;stroke-width:1.0;"/><line style="stroke:#181818;stroke-width:1.0;" x1="27.5" x2="263.5" y1="575.6875" y2="575.6875"/><text fill="#000000" font-family="sans-serif" font-size="13" lengthAdjust="spacing" textLength="202" x="34.5" y="570.6216">new password entered on form</text><polygon fill="#181818" points="842.5,600.8203,852.5,604.8203,842.5,608.8203,846.5,604.8203" style="stroke:#181818;stroke-width:1.0;"/><line style="stroke:#181818;stroke-width:1.0;" x1="269.5" x2="848.5" y1="604.8203" y2="604.8203"/><text fill="#000000" font-family="sans-serif" font-size="13" lengthAdjust="spacing" textLength="202" x="276.5" y="599.7544">new password entered on form</text><polygon fill="#181818" points="1175.5,629.9531,1185.5,633.9531,1175.5,637.9531,1179.5,633.9531" style="stroke:#181818;stroke-width:1.0;"/><line style="stroke:#181818;stroke-width:1.0;" x1="854.5" x2="1181.5" y1="633.9531" y2="633.9531"/><text fill="#000000" font-family="sans-serif" font-size="13" lengthAdjust="spacing" textLength="150" x="861.5" y="628.8872">verify embedded token</text><polygon fill="#181818" points="865.5,659.0859,855.5,663.0859,865.5,667.0859,861.5,663.0859" style="stroke:#181818;stroke-width:1.0;"/><line style="stroke:#181818;stroke-width:1.0;stroke-dasharray:2.0,2.0;" x1="859.5" x2="1186.5" y1="663.0859" y2="663.0859"/><text fill="#000000" font-family="sans-serif" font-size="13" lengthAdjust="spacing" textLength="70" x="871.5" y="658.02">valid token</text><polygon fill="#181818" points="1101.5,688.2188,1111.5,692.2188,1101.5,696.2188,1105.5,692.2188" style="stroke:#181818;stroke-width:1.0;"/><line style="stroke:#181818;stroke-width:1.0;" x1="854.5" x2="1107.5" y1="692.2188" y2="692.2188"/><text fill="#000000" font-family="sans-serif" font-size="13" lengthAdjust="spacing" textLength="235" x="861.5" y="687.1528">update password for user with email</text><polygon fill="#181818" points="865.5,717.3516,855.5,721.3516,865.5,725.3516,861.5,721.3516" style="stroke:#181818;stroke-width:1.0;"/><line style="stroke:#181818;stroke-width:1.0;stroke-dasharray:2.0,2.0;" x1="859.5" x2="1112.5" y1="721.3516" y2="721.3516"/><text fill="#000000" font-family="sans-serif" font-size="13" lengthAdjust="spacing" textLength="114" x="871.5" y="716.2856">success message</text><polygon fill="#181818" points="495.5,746.4844,485.5,750.4844,495.5,754.4844,491.5,750.4844" style="stroke:#181818;stroke-width:1.0;"/><line style="stroke:#181818;stroke-width:1.0;stroke-dasharray:2.0,2.0;" x1="489.5" x2="853.5" y1="750.4844" y2="750.4844"/><text fill="#000000" font-family="sans-serif" font-size="13" lengthAdjust="spacing" textLength="199" x="501.5" y="745.4185">render success message/index</text><polygon fill="#181818" points="280.5,775.6172,270.5,779.6172,280.5,783.6172,276.5,779.6172" style="stroke:#181818;stroke-width:1.0;"/><line style="stroke:#181818;stroke-width:1.0;stroke-dasharray:2.0,2.0;" x1="274.5" x2="483.5" y1="779.6172" y2="779.6172"/><text fill="#000000" font-family="sans-serif" font-size="13" lengthAdjust="spacing" textLength="191" x="286.5" y="774.5513">success msg/index login form</text><polygon fill="#181818" points="38.5,804.75,28.5,808.75,38.5,812.75,34.5,808.75" style="stroke:#181818;stroke-width:1.0;"/><line style="stroke:#181818;stroke-width:1.0;stroke-dasharray:2.0,2.0;" x1="32.5" x2="268.5" y1="808.75" y2="808.75"/><text fill="#000000" font-family="sans-serif" font-size="13" lengthAdjust="spacing" textLength="191" x="44.5" y="803.6841">success msg/index login form</text><!--SRC=[jLBBRiCW4BpxA_W1rBiFhjJss4jLkTUAc8r3Wo4572T_tmNymCIDr4ClbiNCpkxEJct1qEh9w05_Ig80E76Q6B3Wo8bPEsZ3Yn6drOU0eKHKSJ3aDF2HkDUcApn64wqCdZHeLM_1zNeGZ_ftCWXt8D0n8PSfdhLoHalfYMSc1O-4ns81QFN-zYeSlEnAyjs3kKOAWOkmpXOJIDTYFSeJlVl2rhtYQUzKkNP2sfAqeC0m1-ZN4LGaJm95u6JgoyQXOgKPkdnYzLaqa6Wp7CEYtUFuiLmATOpzej2gUF8tByWTRlmZ3L86q2Aq9RBfvFqVpZuoS7tikmFEGuoyBMoUFSGgA1nS9ttnF-H6mJ37be1oO70IhR9zqglShTWu-ncCs5-pDJVl7QDvU-ibcVs9-oFFxRqd8K99ydw9gksR1gmb7NvO2sc3x5uPyq7Ww-N6zPbbsyWWKhT2RT_W7la7]--></g></svg>