<?xml version="1.0" encoding="UTF-8" standalone="no"?><svg xmlns="http://www.w3.org/2000/svg" xmlns:xlink="http://www.w3.org/1999/xlink" contentStyleType="text/css" height="1225px" preserveAspectRatio="none" style="width:1555px;height:1225px;background:#FFFFFF;" version="1.1" viewBox="0 0 1555 1225" width="1555px" zoomAndPan="magnify"><defs/><g><text fill="#000000" font-family="sans-serif" font-size="14" font-weight="bold" lengthAdjust="spacing" textLength="283" x="635.25" y="27.9951">Password Reset Sequence Diagram</text><rect fill="#FFFFFF" height="1097.9141" style="stroke:#181818;stroke-width:1.0;" width="10" x="153" y="83.5938"/><rect fill="#FFFFFF" height="989.3828" style="stroke:#181818;stroke-width:1.0;" width="10" x="158" y="192.125"/><rect fill="#FFFFFF" height="655.9219" style="stroke:#181818;stroke-width:1.0;" width="10" x="163" y="525.5859"/><rect fill="#FFFFFF" height="387.7266" style="stroke:#181818;stroke-width:1.0;" width="10" x="168" y="793.7813"/><rect fill="#FFFFFF" height="183.7969" style="stroke:#181818;stroke-width:1.0;" width="10" x="173" y="997.7109"/><rect fill="#FFFFFF" height="87.3984" style="stroke:#181818;stroke-width:1.0;" width="10" x="466" y="104.7266"/><rect fill="#FFFFFF" height="29.1328" style="stroke:#181818;stroke-width:1.0;" width="10" x="466" y="496.4531"/><rect fill="#FFFFFF" height="203.9297" style="stroke:#181818;stroke-width:1.0;" width="10" x="466" y="589.8516"/><rect fill="#FFFFFF" height="29.1328" style="stroke:#181818;stroke-width:1.0;" width="10" x="761" y="133.8594"/><rect fill="#FFFFFF" height="304.3281" style="stroke:#181818;stroke-width:1.0;" width="10" x="761" y="221.2578"/><rect fill="#FFFFFF" height="145.6641" style="stroke:#181818;stroke-width:1.0;" width="10" x="761" y="618.9844"/><rect fill="#FFFFFF" height="145.6641" style="stroke:#181818;stroke-width:1.0;" width="10" x="761" y="822.9141"/><rect fill="#FFFFFF" height="145.6641" style="stroke:#181818;stroke-width:1.0;" width="10" x="761" y="1026.8438"/><rect fill="#FFFFFF" height="87.3984" style="stroke:#181818;stroke-width:1.0;" width="10" x="933" y="250.3906"/><rect fill="#FFFFFF" height="87.3984" style="stroke:#181818;stroke-width:1.0;" width="10" x="933" y="648.1172"/><rect fill="#FFFFFF" height="87.3984" style="stroke:#181818;stroke-width:1.0;" width="10" x="933" y="852.0469"/><rect fill="#FFFFFF" height="87.3984" style="stroke:#181818;stroke-width:1.0;" width="10" x="933" y="1055.9766"/><rect fill="#FFFFFF" height="129.5313" style="stroke:#181818;stroke-width:1.0;" width="10" x="1221.5" y="366.9219"/><rect fill="#FFFFFF" height="29.1328" style="stroke:#181818;stroke-width:1.0;" width="10" x="1445.5" y="279.5234"/><rect fill="#FFFFFF" height="29.1328" style="stroke:#181818;stroke-width:1.0;" width="10" x="1445.5" y="677.25"/><rect fill="#FFFFFF" height="29.1328" style="stroke:#181818;stroke-width:1.0;" width="10" x="1445.5" y="881.1797"/><rect fill="#FFFFFF" height="29.1328" style="stroke:#181818;stroke-width:1.0;" width="10" x="1445.5" y="1085.1094"/><rect fill="#FFFFFF" height="29.1328" style="stroke:#181818;stroke-width:1.0;" width="10" x="1522" y="396.0547"/><line style="stroke:#181818;stroke-width:0.5;stroke-dasharray:5.0,5.0;" x1="158" x2="158" y1="73.5938" y2="1190.5078"/><line style="stroke:#181818;stroke-width:0.5;stroke-dasharray:5.0,5.0;" x1="470.5" x2="470.5" y1="73.5938" y2="1190.5078"/><line style="stroke:#181818;stroke-width:0.5;stroke-dasharray:5.0,5.0;" x1="766" x2="766" y1="73.5938" y2="1190.5078"/><line style="stroke:#181818;stroke-width:0.5;stroke-dasharray:5.0,5.0;" x1="938" x2="938" y1="73.5938" y2="1190.5078"/><line style="stroke:#181818;stroke-width:0.5;stroke-dasharray:5.0,5.0;" x1="1078" x2="1078" y1="73.5938" y2="1190.5078"/><line style="stroke:#181818;stroke-width:0.5;stroke-dasharray:5.0,5.0;" x1="1226" x2="1226" y1="73.5938" y2="1190.5078"/><line style="stroke:#181818;stroke-width:0.5;stroke-dasharray:5.0,5.0;" x1="1450.5" x2="1450.5" y1="73.5938" y2="1190.5078"/><line style="stroke:#181818;stroke-width:0.5;stroke-dasharray:5.0,5.0;" x1="1526.5" x2="1526.5" y1="73.5938" y2="1190.5078"/><rect fill="#E2E2F0" height="30.2969" rx="2.5" ry="2.5" style="stroke:#181818;stroke-width:0.5;" width="72" x="122" y="42.2969"/><text fill="#000000" font-family="sans-serif" font-size="14" lengthAdjust="spacing" textLength="58" x="129" y="62.292">Browser</text><rect fill="#E2E2F0" height="30.2969" rx="2.5" ry="2.5" style="stroke:#181818;stroke-width:0.5;" width="72" x="122" y="1189.5078"/><text fill="#000000" font-family="sans-serif" font-size="14" lengthAdjust="spacing" textLength="58" x="129" y="1209.5029">Browser</text><rect fill="#E2E2F0" height="30.2969" rx="2.5" ry="2.5" style="stroke:#181818;stroke-width:0.5;" width="87" x="427.5" y="42.2969"/><text fill="#000000" font-family="sans-serif" font-size="14" lengthAdjust="spacing" textLength="73" x="434.5" y="62.292">Serv_View</text><rect fill="#E2E2F0" height="30.2969" rx="2.5" ry="2.5" style="stroke:#181818;stroke-width:0.5;" width="87" x="427.5" y="1189.5078"/><text fill="#000000" font-family="sans-serif" font-size="14" lengthAdjust="spacing" textLength="73" x="434.5" y="1209.5029">Serv_View</text><rect fill="#E2E2F0" height="30.2969" rx="2.5" ry="2.5" style="stroke:#181818;stroke-width:0.5;" width="126" x="703" y="42.2969"/><text fill="#000000" font-family="sans-serif" font-size="14" lengthAdjust="spacing" textLength="112" x="710" y="62.292">Serv_Controller</text><rect fill="#E2E2F0" height="30.2969" rx="2.5" ry="2.5" style="stroke:#181818;stroke-width:0.5;" width="126" x="703" y="1189.5078"/><text fill="#000000" font-family="sans-serif" font-size="14" lengthAdjust="spacing" textLength="112" x="710" y="1209.5029">Serv_Controller</text><rect fill="#E2E2F0" height="30.2969" rx="2.5" ry="2.5" style="stroke:#181818;stroke-width:0.5;" width="96" x="890" y="42.2969"/><text fill="#000000" font-family="sans-serif" font-size="14" lengthAdjust="spacing" textLength="82" x="897" y="62.292">Serv_Model</text><rect fill="#E2E2F0" height="30.2969" rx="2.5" ry="2.5" style="stroke:#181818;stroke-width:0.5;" width="96" x="890" y="1189.5078"/><text fill="#000000" font-family="sans-serif" font-size="14" lengthAdjust="spacing" textLength="82" x="897" y="1209.5029">Serv_Model</text><rect fill="#E2E2F0" height="30.2969" rx="2.5" ry="2.5" style="stroke:#181818;stroke-width:0.5;" width="164" x="996" y="42.2969"/><text fill="#000000" font-family="sans-serif" font-size="14" lengthAdjust="spacing" textLength="150" x="1003" y="62.292">Serv_Controller_User</text><rect fill="#E2E2F0" height="30.2969" rx="2.5" ry="2.5" style="stroke:#181818;stroke-width:0.5;" width="164" x="996" y="1189.5078"/><text fill="#000000" font-family="sans-serif" font-size="14" lengthAdjust="spacing" textLength="150" x="1003" y="1209.5029">Serv_Controller_User</text><rect fill="#E2E2F0" height="30.2969" rx="2.5" ry="2.5" style="stroke:#181818;stroke-width:0.5;" width="113" x="1170" y="42.2969"/><text fill="#000000" font-family="sans-serif" font-size="14" lengthAdjust="spacing" textLength="99" x="1177" y="62.292">Email_Service</text><rect fill="#E2E2F0" height="30.2969" rx="2.5" ry="2.5" style="stroke:#181818;stroke-width:0.5;" width="113" x="1170" y="1189.5078"/><text fill="#000000" font-family="sans-serif" font-size="14" lengthAdjust="spacing" textLength="99" x="1177" y="1209.5029">Email_Service</text><rect fill="#E2E2F0" height="30.2969" rx="2.5" ry="2.5" style="stroke:#181818;stroke-width:0.5;" width="88" x="1406.5" y="42.2969"/><text fill="#000000" font-family="sans-serif" font-size="14" lengthAdjust="spacing" textLength="74" x="1413.5" y="62.292">SQLite_dB</text><rect fill="#E2E2F0" height="30.2969" rx="2.5" ry="2.5" style="stroke:#181818;stroke-width:0.5;" width="88" x="1406.5" y="1189.5078"/><text fill="#000000" font-family="sans-serif" font-size="14" lengthAdjust="spacing" textLength="74" x="1413.5" y="1209.5029">SQLite_dB</text><rect fill="#E2E2F0" height="30.2969" rx="2.5" ry="2.5" style="stroke:#181818;stroke-width:0.5;" width="45" x="1504.5" y="42.2969"/><text fill="#000000" font-family="sans-serif" font-size="14" lengthAdjust="spacing" textLength="31" x="1511.5" y="62.292">User</text><rect fill="#E2E2F0" height="30.2969" rx="2.5" ry="2.5" style="stroke:#181818;stroke-width:0.5;" width="45" x="1504.5" y="1189.5078"/><text fill="#000000" font-family="sans-serif" font-size="14" lengthAdjust="spacing" textLength="31" x="1511.5" y="1209.5029">User</text><rect fill="#FFFFFF" height="1097.9141" style="stroke:#181818;stroke-width:1.0;" width="10" x="153" y="83.5938"/><rect fill="#FFFFFF" height="989.3828" style="stroke:#181818;stroke-width:1.0;" width="10" x="158" y="192.125"/><rect fill="#FFFFFF" height="655.9219" style="stroke:#181818;stroke-width:1.0;" width="10" x="163" y="525.5859"/><rect fill="#FFFFFF" height="387.7266" style="stroke:#181818;stroke-width:1.0;" width="10" x="168" y="793.7813"/><rect fill="#FFFFFF" height="183.7969" style="stroke:#181818;stroke-width:1.0;" width="10" x="173" y="997.7109"/><rect fill="#FFFFFF" height="87.3984" style="stroke:#181818;stroke-width:1.0;" width="10" x="466" y="104.7266"/><rect fill="#FFFFFF" height="29.1328" style="stroke:#181818;stroke-width:1.0;" width="10" x="466" y="496.4531"/><rect fill="#FFFFFF" height="203.9297" style="stroke:#181818;stroke-width:1.0;" width="10" x="466" y="589.8516"/><rect fill="#FFFFFF" height="29.1328" style="stroke:#181818;stroke-width:1.0;" width="10" x="761" y="133.8594"/><rect fill="#FFFFFF" height="304.3281" style="stroke:#181818;stroke-width:1.0;" width="10" x="761" y="221.2578"/><rect fill="#FFFFFF" height="145.6641" style="stroke:#181818;stroke-width:1.0;" width="10" x="761" y="618.9844"/><rect fill="#FFFFFF" height="145.6641" style="stroke:#181818;stroke-width:1.0;" width="10" x="761" y="822.9141"/><rect fill="#FFFFFF" height="145.6641" style="stroke:#181818;stroke-width:1.0;" width="10" x="761" y="1026.8438"/><rect fill="#FFFFFF" height="87.3984" style="stroke:#181818;stroke-width:1.0;" width="10" x="933" y="250.3906"/><rect fill="#FFFFFF" height="87.3984" style="stroke:#181818;stroke-width:1.0;" width="10" x="933" y="648.1172"/><rect fill="#FFFFFF" height="87.3984" style="stroke:#181818;stroke-width:1.0;" width="10" x="933" y="852.0469"/><rect fill="#FFFFFF" height="87.3984" style="stroke:#181818;stroke-width:1.0;" width="10" x="933" y="1055.9766"/><rect fill="#FFFFFF" height="129.5313" style="stroke:#181818;stroke-width:1.0;" width="10" x="1221.5" y="366.9219"/><rect fill="#FFFFFF" height="29.1328" style="stroke:#181818;stroke-width:1.0;" width="10" x="1445.5" y="279.5234"/><rect fill="#FFFFFF" height="29.1328" style="stroke:#181818;stroke-width:1.0;" width="10" x="1445.5" y="677.25"/><rect fill="#FFFFFF" height="29.1328" style="stroke:#181818;stroke-width:1.0;" width="10" x="1445.5" y="881.1797"/><rect fill="#FFFFFF" height="29.1328" style="stroke:#181818;stroke-width:1.0;" width="10" x="1445.5" y="1085.1094"/><rect fill="#FFFFFF" height="29.1328" style="stroke:#181818;stroke-width:1.0;" width="10" x="1522" y="396.0547"/><polygon fill="#181818" points="454,100.7266,464,104.7266,454,108.7266,458,104.7266" style="stroke:#181818;stroke-width:1.0;"/><line style="stroke:#181818;stroke-width:1.0;" x1="163" x2="460" y1="104.7266" y2="104.7266"/><text fill="#000000" font-family="sans-serif" font-size="13" lengthAdjust="spacing" textLength="212" x="170" y="99.6606">navigate to password reset page</text><polygon fill="#181818" points="749,129.8594,759,133.8594,749,137.8594,753,133.8594" style="stroke:#181818;stroke-width:1.0;"/><line style="stroke:#181818;stroke-width:1.0;" x1="476" x2="755" y1="133.8594" y2="133.8594"/><text fill="#000000" font-family="sans-serif" font-size="13" lengthAdjust="spacing" textLength="187" x="483" y="128.7935">request password reset form</text><polygon fill="#181818" points="487,158.9922,477,162.9922,487,166.9922,483,162.9922" style="stroke:#181818;stroke-width:1.0;"/><line style="stroke:#181818;stroke-width:1.0;" x1="481" x2="765" y1="162.9922" y2="162.9922"/><text fill="#000000" font-family="sans-serif" font-size="13" lengthAdjust="spacing" textLength="180" x="493" y="157.9263">render password reset form</text><polygon fill="#181818" points="179,188.125,169,192.125,179,196.125,175,192.125" style="stroke:#181818;stroke-width:1.0;"/><line style="stroke:#181818;stroke-width:1.0;" x1="173" x2="470" y1="192.125" y2="192.125"/><text fill="#000000" font-family="sans-serif" font-size="13" lengthAdjust="spacing" textLength="183" x="185" y="187.0591">display password reset form</text><polygon fill="#181818" points="749,217.2578,759,221.2578,749,225.2578,753,221.2578" style="stroke:#181818;stroke-width:1.0;"/><line style="stroke:#181818;stroke-width:1.0;" x1="168" x2="755" y1="221.2578" y2="221.2578"/><text fill="#000000" font-family="sans-serif" font-size="13" lengthAdjust="spacing" textLength="252" x="175" y="216.1919">submit password reset form with email</text><polygon fill="#181818" points="921,246.3906,931,250.3906,921,254.3906,925,250.3906" style="stroke:#181818;stroke-width:1.0;"/><line style="stroke:#181818;stroke-width:1.0;" x1="771" x2="927" y1="250.3906" y2="250.3906"/><text fill="#000000" font-family="sans-serif" font-size="13" lengthAdjust="spacing" textLength="115" x="778" y="245.3247">find user by email</text><polygon fill="#181818" points="1433.5,275.5234,1443.5,279.5234,1433.5,283.5234,1437.5,279.5234" style="stroke:#181818;stroke-width:1.0;"/><line style="stroke:#181818;stroke-width:1.0;" x1="943" x2="1439.5" y1="279.5234" y2="279.5234"/><text fill="#000000" font-family="sans-serif" font-size="13" lengthAdjust="spacing" textLength="128" x="950" y="274.4575">query user by email</text><polygon fill="#181818" points="954,304.6563,944,308.6563,954,312.6563,950,308.6563" style="stroke:#181818;stroke-width:1.0;"/><line style="stroke:#181818;stroke-width:1.0;" x1="948" x2="1449.5" y1="308.6563" y2="308.6563"/><text fill="#000000" font-family="sans-serif" font-size="13" lengthAdjust="spacing" textLength="73" x="960" y="303.5903">user record</text><polygon fill="#181818" points="782,333.7891,772,337.7891,782,341.7891,778,337.7891" style="stroke:#181818;stroke-width:1.0;"/><line style="stroke:#181818;stroke-width:1.0;" x1="776" x2="937" y1="337.7891" y2="337.7891"/><text fill="#000000" font-family="sans-serif" font-size="13" lengthAdjust="spacing" textLength="71" x="788" y="332.7231">user object</text><polygon fill="#181818" points="1209.5,362.9219,1219.5,366.9219,1209.5,370.9219,1213.5,366.9219" style="stroke:#181818;stroke-width:1.0;"/><line style="stroke:#181818;stroke-width:1.0;" x1="771" x2="1215.5" y1="366.9219" y2="366.9219"/><text fill="#000000" font-family="sans-serif" font-size="13" lengthAdjust="spacing" textLength="159" x="778" y="361.856">send password reset link</text><polygon fill="#181818" points="1510,392.0547,1520,396.0547,1510,400.0547,1514,396.0547" style="stroke:#181818;stroke-width:1.0;"/><line style="stroke:#181818;stroke-width:1.0;" x1="1231.5" x2="1516" y1="396.0547" y2="396.0547"/><text fill="#000000" font-family="sans-serif" font-size="13" lengthAdjust="spacing" textLength="184" x="1238.5" y="390.9888">create password reset token</text><polygon fill="#181818" points="1242.5,421.1875,1232.5,425.1875,1242.5,429.1875,1238.5,425.1875" style="stroke:#181818;stroke-width:1.0;"/><line style="stroke:#181818;stroke-width:1.0;stroke-dasharray:2.0,2.0;" x1="1236.5" x2="1526" y1="425.1875" y2="425.1875"/><text fill="#000000" font-family="sans-serif" font-size="13" lengthAdjust="spacing" textLength="139" x="1248.5" y="420.1216">password reset token</text><line style="stroke:#181818;stroke-width:1.0;" x1="1231.5" x2="1273.5" y1="454.3203" y2="454.3203"/><line style="stroke:#181818;stroke-width:1.0;" x1="1273.5" x2="1273.5" y1="454.3203" y2="467.3203"/><line style="stroke:#181818;stroke-width:1.0;" x1="1232.5" x2="1273.5" y1="467.3203" y2="467.3203"/><polygon fill="#181818" points="1242.5,463.3203,1232.5,467.3203,1242.5,471.3203,1238.5,467.3203" style="stroke:#181818;stroke-width:1.0;"/><text fill="#000000" font-family="sans-serif" font-size="13" lengthAdjust="spacing" textLength="200" x="1238.5" y="449.2544">generate password reset email</text><polygon fill="#181818" points="487,492.4531,477,496.4531,487,500.4531,483,496.4531" style="stroke:#181818;stroke-width:1.0;"/><line style="stroke:#181818;stroke-width:1.0;" x1="481" x2="1225.5" y1="496.4531" y2="496.4531"/><text fill="#000000" font-family="sans-serif" font-size="13" lengthAdjust="spacing" textLength="266" x="493" y="491.3872">render password reset confirmation page</text><polygon fill="#181818" points="184,521.5859,174,525.5859,184,529.5859,180,525.5859" style="stroke:#181818;stroke-width:1.0;"/><line style="stroke:#181818;stroke-width:1.0;" x1="178" x2="470" y1="525.5859" y2="525.5859"/><text fill="#000000" font-family="sans-serif" font-size="13" lengthAdjust="spacing" textLength="269" x="190" y="520.52">display password reset confirmation page</text><path d="M5,538.5859 L5,563.5859 L311,563.5859 L311,548.5859 L301,538.5859 L5,538.5859 " fill="#FEFFDD" style="stroke:#181818;stroke-width:0.5;"/><path d="M301,538.5859 L301,548.5859 L311,548.5859 L301,538.5859 " fill="#FEFFDD" style="stroke:#181818;stroke-width:0.5;"/><text fill="#000000" font-family="sans-serif" font-size="13" lengthAdjust="spacing" textLength="285" x="11" y="555.6528">User receives email with password reset link</text><polygon fill="#181818" points="454,585.8516,464,589.8516,454,593.8516,458,589.8516" style="stroke:#181818;stroke-width:1.0;"/><line style="stroke:#181818;stroke-width:1.0;" x1="173" x2="460" y1="589.8516" y2="589.8516"/><text fill="#000000" font-family="sans-serif" font-size="13" lengthAdjust="spacing" textLength="201" x="180" y="584.7856">navigate to password reset link</text><polygon fill="#181818" points="749,614.9844,759,618.9844,749,622.9844,753,618.9844" style="stroke:#181818;stroke-width:1.0;"/><line style="stroke:#181818;stroke-width:1.0;" x1="476" x2="755" y1="618.9844" y2="618.9844"/><text fill="#000000" font-family="sans-serif" font-size="13" lengthAdjust="spacing" textLength="258" x="483" y="613.9185">request password reset form with token</text><polygon fill="#181818" points="921,644.1172,931,648.1172,921,652.1172,925,648.1172" style="stroke:#181818;stroke-width:1.0;"/><line style="stroke:#181818;stroke-width:1.0;" x1="771" x2="927" y1="648.1172" y2="648.1172"/><text fill="#000000" font-family="sans-serif" font-size="13" lengthAdjust="spacing" textLength="116" x="778" y="643.0513">find user by token</text><polygon fill="#181818" points="1433.5,673.25,1443.5,677.25,1433.5,681.25,1437.5,677.25" style="stroke:#181818;stroke-width:1.0;"/><line style="stroke:#181818;stroke-width:1.0;" x1="943" x2="1439.5" y1="677.25" y2="677.25"/><text fill="#000000" font-family="sans-serif" font-size="13" lengthAdjust="spacing" textLength="129" x="950" y="672.1841">query user by token</text><polygon fill="#181818" points="954,702.3828,944,706.3828,954,710.3828,950,706.3828" style="stroke:#181818;stroke-width:1.0;"/><line style="stroke:#181818;stroke-width:1.0;" x1="948" x2="1449.5" y1="706.3828" y2="706.3828"/><text fill="#000000" font-family="sans-serif" font-size="13" lengthAdjust="spacing" textLength="73" x="960" y="701.3169">user record</text><polygon fill="#181818" points="782,731.5156,772,735.5156,782,739.5156,778,735.5156" style="stroke:#181818;stroke-width:1.0;"/><line style="stroke:#181818;stroke-width:1.0;" x1="776" x2="937" y1="735.5156" y2="735.5156"/><text fill="#000000" font-family="sans-serif" font-size="13" lengthAdjust="spacing" textLength="71" x="788" y="730.4497">user object</text><polygon fill="#181818" points="487,760.6484,477,764.6484,487,768.6484,483,764.6484" style="stroke:#181818;stroke-width:1.0;"/><line style="stroke:#181818;stroke-width:1.0;" x1="481" x2="765" y1="764.6484" y2="764.6484"/><text fill="#000000" font-family="sans-serif" font-size="13" lengthAdjust="spacing" textLength="180" x="493" y="759.5825">render password reset form</text><polygon fill="#181818" points="189,789.7813,179,793.7813,189,797.7813,185,793.7813" style="stroke:#181818;stroke-width:1.0;"/><line style="stroke:#181818;stroke-width:1.0;" x1="183" x2="470" y1="793.7813" y2="793.7813"/><text fill="#000000" font-family="sans-serif" font-size="13" lengthAdjust="spacing" textLength="183" x="195" y="788.7153">display password reset form</text><polygon fill="#181818" points="749,818.9141,759,822.9141,749,826.9141,753,822.9141" style="stroke:#181818;stroke-width:1.0;"/><line style="stroke:#181818;stroke-width:1.0;" x1="178" x2="755" y1="822.9141" y2="822.9141"/><text fill="#000000" font-family="sans-serif" font-size="13" lengthAdjust="spacing" textLength="310" x="185" y="817.8481">submit password reset form with new password</text><polygon fill="#181818" points="921,848.0469,931,852.0469,921,856.0469,925,852.0469" style="stroke:#181818;stroke-width:1.0;"/><line style="stroke:#181818;stroke-width:1.0;" x1="771" x2="927" y1="852.0469" y2="852.0469"/><text fill="#000000" font-family="sans-serif" font-size="13" lengthAdjust="spacing" textLength="143" x="778" y="846.981">update user password</text><polygon fill="#181818" points="1433.5,877.1797,1443.5,881.1797,1433.5,885.1797,1437.5,881.1797" style="stroke:#181818;stroke-width:1.0;"/><line style="stroke:#181818;stroke-width:1.0;" x1="943" x2="1439.5" y1="881.1797" y2="881.1797"/><text fill="#000000" font-family="sans-serif" font-size="13" lengthAdjust="spacing" textLength="143" x="950" y="876.1138">update user password</text><polygon fill="#181818" points="954,906.3125,944,910.3125,954,914.3125,950,910.3125" style="stroke:#181818;stroke-width:1.0;"/><line style="stroke:#181818;stroke-width:1.0;stroke-dasharray:2.0,2.0;" x1="948" x2="1449.5" y1="910.3125" y2="910.3125"/><text fill="#000000" font-family="sans-serif" font-size="13" lengthAdjust="spacing" textLength="116" x="960" y="905.2466">update successful</text><polygon fill="#181818" points="782,935.4453,772,939.4453,782,943.4453,778,939.4453" style="stroke:#181818;stroke-width:1.0;"/><line style="stroke:#181818;stroke-width:1.0;stroke-dasharray:2.0,2.0;" x1="776" x2="937" y1="939.4453" y2="939.4453"/><text fill="#000000" font-family="sans-serif" font-size="13" lengthAdjust="spacing" textLength="116" x="788" y="934.3794">update successful</text><polygon fill="#181818" points="482,964.5781,472,968.5781,482,972.5781,478,968.5781" style="stroke:#181818;stroke-width:1.0;"/><line style="stroke:#181818;stroke-width:1.0;" x1="476" x2="765" y1="968.5781" y2="968.5781"/><text fill="#000000" font-family="sans-serif" font-size="13" lengthAdjust="spacing" textLength="266" x="488" y="963.5122">render password reset confirmation page</text><polygon fill="#181818" points="194,993.7109,184,997.7109,194,1001.7109,190,997.7109" style="stroke:#181818;stroke-width:1.0;"/><line style="stroke:#181818;stroke-width:1.0;" x1="188" x2="470" y1="997.7109" y2="997.7109"/><text fill="#000000" font-family="sans-serif" font-size="13" lengthAdjust="spacing" textLength="269" x="200" y="992.645">display password reset confirmation page</text><polygon fill="#181818" points="749,1022.8438,759,1026.8438,749,1030.8438,753,1026.8438" style="stroke:#181818;stroke-width:1.0;"/><line style="stroke:#181818;stroke-width:1.0;" x1="183" x2="755" y1="1026.8438" y2="1026.8438"/><text fill="#000000" font-family="sans-serif" font-size="13" lengthAdjust="spacing" textLength="158" x="190" y="1021.7778">login with new password</text><polygon fill="#181818" points="921,1051.9766,931,1055.9766,921,1059.9766,925,1055.9766" style="stroke:#181818;stroke-width:1.0;"/><line style="stroke:#181818;stroke-width:1.0;" x1="771" x2="927" y1="1055.9766" y2="1055.9766"/><text fill="#000000" font-family="sans-serif" font-size="13" lengthAdjust="spacing" textLength="113" x="778" y="1050.9106">authenticate user</text><polygon fill="#181818" points="1433.5,1081.1094,1443.5,1085.1094,1433.5,1089.1094,1437.5,1085.1094" style="stroke:#181818;stroke-width:1.0;"/><line style="stroke:#181818;stroke-width:1.0;" x1="943" x2="1439.5" y1="1085.1094" y2="1085.1094"/><text fill="#000000" font-family="sans-serif" font-size="13" lengthAdjust="spacing" textLength="222" x="950" y="1080.0435">query user by email and password</text><polygon fill="#181818" points="954,1110.2422,944,1114.2422,954,1118.2422,950,1114.2422" style="stroke:#181818;stroke-width:1.0;"/><line style="stroke:#181818;stroke-width:1.0;" x1="948" x2="1449.5" y1="1114.2422" y2="1114.2422"/><text fill="#000000" font-family="sans-serif" font-size="13" lengthAdjust="spacing" textLength="73" x="960" y="1109.1763">user record</text><polygon fill="#181818" points="782,1139.375,772,1143.375,782,1147.375,778,1143.375" style="stroke:#181818;stroke-width:1.0;"/><line style="stroke:#181818;stroke-width:1.0;" x1="776" x2="937" y1="1143.375" y2="1143.375"/><text fill="#000000" font-family="sans-serif" font-size="13" lengthAdjust="spacing" textLength="71" x="788" y="1138.3091">user object</text><polygon fill="#181818" points="194,1168.5078,184,1172.5078,194,1176.5078,190,1172.5078" style="stroke:#181818;stroke-width:1.0;"/><line style="stroke:#181818;stroke-width:1.0;" x1="188" x2="765" y1="1172.5078" y2="1172.5078"/><text fill="#000000" font-family="sans-serif" font-size="13" lengthAdjust="spacing" textLength="170" x="200" y="1167.4419">redirect to user dashboard</text><!--SRC=[tLR1SjiW4BtxA_Y1_e0EFQJjhPrfat6l7WnhUHi42Y1v_FT5o1824IcEVSZaP8JPjsyVRrUoQ0MGtzIOazASF881IvxWfG79W7n7McfQRJOrrHOPrbHQyg3LoO2Ezfv0jxk_2AVvxZSbhLP2v29-AGvYAMItJJFzg2YANNSC6SIXVtwYXHr_Y7Ozm8OoYosrC9A__98lNmFtWaZQOjaTiuhKWoRQQrBJ4W9Cg7TSZL21VU5YdPB6fc07fQi4R29Jyfnmr22vsymXSbZ676XUYYy8HrCBUduJcAzsNSXfzQRPLvWjdfpG7WbqTtcz3jur1JcWvAJfSk_FMQZUNM7f0GQJ5CJTZ3w_2Z2QQLob-Nsa1kOgYyGAaN7cL1qVh_R_WDcPs1FgiG2H_Pt2pWoflWBbSoWaxfVegSFRUXym3TtP1CYgPv01oNVIrj_rd4WsT5AL3vvbJq1AaA0pHFgxcKMlDWLJye2weXQLx1jumYWMPgsprrfcCLN0NEZGZLHkLxMkZ37Pzc8nm1PCBqFVERahlyEGYwrpXo7NiqsCT4kVvw2kwlCKu8Fs-USS-DBH6Vvyjn-QcdTHNjPNm5OSiOAGiqIUWsaO0sCEZLXtHjOQYp2t6MHz8htNBNUOTLUvIgWIvHqDH1jx1Ec-40SJtFpTGEZaDVpnXyjumHeukkJT-xf7ujGSzuecP6A4_m00]--></g></svg>